<?xml version="1.0" standalone="no"?><!DOCTYPE svg PUBLIC "-//W3C//DTD SVG 1.1//EN" "http://www.w3.org/Graphics/SVG/1.1/DTD/svg11.dtd"><svg t="1533436536360" class="icon" style="" viewBox="0 0 1024 1024" version="1.1" xmlns="http://www.w3.org/2000/svg" p-id="5987" xmlns:xlink="http://www.w3.org/1999/xlink" width="128" height="128"><defs><style type="text/css"></style></defs><path d="M1021.922802 480.490957c0.365704 5.924402 1.170252 11.702523 1.316534 17.656182h-55.338305c-7.240936-241.071969-201.020085-434.83649-442.077426-442.077427v-0.702151a27.661838 27.661838 0 1 1 0-55.352933c1.930916 0 3.657038 0.731408 5.470929 1.126368C786.614325 10.707808 993.471044 206.827462 1020.167424 457.33459c2.208851 3.978858 3.80332 8.294163 3.80332 13.136082 0 3.569269-0.819177 6.919117-2.033314 10.020285zM411.636239 332.102968c17.217337 0 31.157967 12.375418 31.157967 27.676467 0 15.301049-13.94063 27.676466-31.157967 27.676466h-134.871575v138.367704a27.64721 27.64721 0 0 1-27.676467 27.676466 27.64721 27.64721 0 0 1-27.676466-27.676466v-138.382332h-134.871575c-17.217337 0-31.157967-12.36079-31.157967-27.64721 0-15.315677 13.94063-27.691095 31.157967-27.691095h134.871575v-82.005428c-54.18268 0-120.038627-1.009343-134.871575-1.009343-17.217337 0-31.157967-12.375418-31.157967-27.676466 0-15.301049 13.94063-27.676466 31.157967-27.676466h73.521099l-71.53167-92.303649a27.64721 27.64721 0 0 1 0-39.144938 27.64721 27.64721 0 0 1 39.13031 0l101.855833 131.448587h31.362761l107.034199-130.965858c10.824834-10.239707 28.320105-10.239707 39.130311 0 10.824834 10.239707 10.824834 26.85729 0 37.096997l-76.710037 93.868861h81.303277c17.217337 0 31.157967 12.375418 31.157967 27.676466 0 15.301049-13.94063 27.676466-31.157967 27.676466-11.205166 0-74.106226 0.146282-135.31042 0.146282l0.438845 10.034913v72.848205h134.871575zM56.025828 525.823605c7.255564 241.086598 201.034713 434.83649 442.121311 442.077426v55.352933c-5.982915-0.16091-11.731779-0.965458-17.656182-1.316534-3.130425 1.199509-6.436388 2.004057-10.020285 2.004057-4.827291 0-9.157224-1.579841-13.136082-3.759435C206.768949 993.471044 10.649296 786.614325 1.140996 531.279906c-0.39496-1.828519-1.11174-3.510757-1.11174-5.456301a27.661838 27.661838 0 1 1 55.338305 0h0.672895z m497.474243 83.014771c0-72.994486 66.324048-132.13611 166.029542-137.358361v-25.160424c0-17.217337 12.375418-31.187223 27.676467-31.187223 15.301049 0 27.676466 13.969887 27.676466 31.187223v27.866632c72.979858 12.112111 122.627811 55.543099 134.271821 110.223137 2.384389 4.373818 4.095883 9.157224 4.095883 14.481872 0 17.641553-15.110883 31.918631-33.732522 31.918631-18.621639 0-35.151453-14.964601-35.151453-32.620783 0-0.248679 0 0.248679 0 0-5.222251-27.354647-30.294906-49.896632-69.512985-59.200137v154.72198c100.202851 9.171852 166.029542 66.455701 166.029542 136.524556s-65.826691 127.352704-166.029542 136.509928v26.038113c0.029256 17.217337-12.346162 31.157967-27.64721 31.157967-15.301049 0-27.676466-13.94063-27.676467-31.157967v-25.877203c-87.885946-8.074741-148.183195-53.656067-161.641096-112.241822-2.559927-4.373818-4.388446-9.157224-4.388446-14.437987 0-17.656181 16.266507-31.947887 36.307077-31.947887s36.307077 14.306334 36.307077 31.947887c0 0.219422-0.146282 0.438845-0.175538 0.62901h1.726123c6.33399 30.865404 39.905603 55.513842 91.850175 62.023371V746.182109c-99.690866-5.192994-166.029542-64.334619-166.029542-137.343733z m166.029542-73.638125c-60.706837 4.242165-98.564498 35.400131-98.564498 73.638125 0 38.281878 37.857661 69.439845 98.564498 73.667381v-147.305506z m55.352933 367.810292c58.029885-7.226308 93.40076-37.023856 93.40076-72.775064 0-35.765835-35.370875-65.563384-93.40076-72.789692v145.564756z" p-id="5988"></path></svg>